<svg data-name="Layer 1" xmlns="http://www.w3.org/2000/svg" viewBox="0 0 450 450"><g transform="matrix(1.2162162162162162,0,0,1.2162162162162162,0,0)"><path d="M321.15 247.19c0 84.44-57.9 87.57-129.33 87.57s-129.33-3.13-129.33-87.57 57.9-152.91 129.33-152.91 129.33 68.46 129.33 152.91z" fill="#b8ecff"></path><ellipse cx="192.08" cy="328.26" rx="70.82" ry="5.5" fill="#4acfff"></ellipse><path d="M225 279.48s-3.32 48.95 11 48.88 5.28-53.18 5.28-53.18z" stroke-miterlimit="10" stroke="#404041" stroke-width="4" fill="#ffe8d3"></path><path d="M225 279.48s-3.32 48.95 11 48.88 5.28-53.18 5.28-53.18z" fill="#ffe8d3"></path><path d="m241.32 275.18-16.32 4.3s-.55 8.18-.23 17.85a31.28 31.28 0 0 0 3.6-3.4 26 26 0 0 0 6.08.39 25.41 25.41 0 0 0 8.95-2.17c-.79-9.41-2.08-16.97-2.08-16.97z" fill="#e4beb0"></path><path d="M225 279.48s-3.32 48.95 11 48.88 5.28-53.18 5.28-53.18z" fill="none" stroke-miterlimit="10" stroke="#404041" stroke-width="4"></path><path d="M291.44 217.56a31.45 31.45 0 0 0-7.57-18.72 33.69 33.69 0 0 0 4.13-10.39c3-14.2-3.48-28.39-15.43-37a33.17 33.17 0 0 0 2.13-6.59c4.2-19.81-10.09-39.61-31.91-44.23a43.25 43.25 0 0 0-19.83.36c-5.36-15.57-21.84-26.37-40.66-25.28-18.51 1.06-33.45 13.3-37.29 29a44.21 44.21 0 0 0-13.08 2.29c-21.14 7.1-33.06 28.41-26.62 47.6a33.36 33.36 0 0 0 2.87 6.3c-10.88 9.92-15.69 24.76-11.07 38.52a33.09 33.09 0 0 0 4.28 8.45 31.54 31.54 0 0 0 14 48.74 25.83 25.83 0 0 0 26.31 33.14 25.74 25.74 0 0 0 10.68-3 25.79 25.79 0 0 0 14.84 3.67 26.07 26.07 0 0 0 8.9-2.16 31.5 31.5 0 0 0 43.23-3.4 26.08 26.08 0 0 0 6.08.39 25.8 25.8 0 0 0 13.7-4.9A25.86 25.86 0 0 0 275 247.11a31.57 31.57 0 0 0 16.44-29.55z" stroke-linecap="round" stroke-linejoin="round" fill="#f0f0ff" stroke="#404041" stroke-width="4"></path><path d="M291.44 217.56a31.45 31.45 0 0 0-7.57-18.72 33.69 33.69 0 0 0 4.13-10.39c3-14.2-3.48-28.39-15.43-37a33.17 33.17 0 0 0 2.13-6.59c4.2-19.81-10.09-39.61-31.91-44.23a43.25 43.25 0 0 0-19.83.36c-5.36-15.57-21.84-26.37-40.66-25.28-18.51 1.06-33.45 13.3-37.29 29a44.21 44.21 0 0 0-13.08 2.29c-21.14 7.1-33.06 28.41-26.62 47.6a33.36 33.36 0 0 0 2.87 6.3c-10.88 9.92-15.69 24.76-11.07 38.52a33.09 33.09 0 0 0 4.28 8.45 31.54 31.54 0 0 0 14 48.74 25.83 25.83 0 0 0 26.31 33.14 25.74 25.74 0 0 0 10.68-3 25.79 25.79 0 0 0 14.84 3.67 26.07 26.07 0 0 0 8.9-2.16 31.5 31.5 0 0 0 43.23-3.4 26.08 26.08 0 0 0 6.08.39 25.8 25.8 0 0 0 13.7-4.9A25.86 25.86 0 0 0 275 247.11a31.57 31.57 0 0 0 16.44-29.55z" stroke-linecap="round" stroke-linejoin="round" fill="#f0f0ff" stroke="#404041" stroke-width="4"></path><path d="M164.76 177.48s.1 20.92 28.43 18.84c27.55-2 25.06-21.92 25.06-21.92zM289.36 208A31.77 31.77 0 0 1 275 224.39a25.86 25.86 0 0 1-35.84 33.25 25.8 25.8 0 0 1-13.7 4.9 26.08 26.08 0 0 1-6.08-.39 31.52 31.52 0 0 1-43.23 3.4 26.07 26.07 0 0 1-8.9 2.16 25.72 25.72 0 0 1-14.88-3.71 25.85 25.85 0 0 1-38-21.35 26.11 26.11 0 0 1 1-8.78A31.67 31.67 0 0 1 97 215.73a31.5 31.5 0 0 0 18.37 40.9 25.83 25.83 0 0 0 26.31 33.14 25.74 25.74 0 0 0 10.68-3 25.79 25.79 0 0 0 14.84 3.67 26.07 26.07 0 0 0 8.9-2.16 31.5 31.5 0 0 0 43.23-3.4 26.08 26.08 0 0 0 6.08.39 25.8 25.8 0 0 0 13.7-4.9A25.86 25.86 0 0 0 275 247.11 31.44 31.44 0 0 0 289.36 208z" opacity=".25" fill="#6980a0"></path><path d="M291.44 217.56a31.45 31.45 0 0 0-7.57-18.72 33.69 33.69 0 0 0 4.13-10.39c3-14.2-3.48-28.39-15.43-37a33.17 33.17 0 0 0 2.13-6.59c4.2-19.81-10.09-39.61-31.91-44.23a43.25 43.25 0 0 0-19.83.36c-5.36-15.57-21.84-26.37-40.66-25.28-18.51 1.06-33.45 13.3-37.29 29a44.21 44.21 0 0 0-13.08 2.29c-21.14 7.1-33.06 28.41-26.62 47.6a33.36 33.36 0 0 0 2.87 6.3c-10.88 9.92-15.69 24.76-11.07 38.52a33.09 33.09 0 0 0 4.28 8.45 31.54 31.54 0 0 0 14 48.74 25.83 25.83 0 0 0 26.31 33.14 25.74 25.74 0 0 0 10.68-3 25.79 25.79 0 0 0 14.84 3.67 26.07 26.07 0 0 0 8.9-2.16 31.5 31.5 0 0 0 43.23-3.4 26.08 26.08 0 0 0 6.08.39 25.8 25.8 0 0 0 13.7-4.9A25.86 25.86 0 0 0 275 247.11a31.57 31.57 0 0 0 16.44-29.55zm0 0a31.45 31.45 0 0 0-7.57-18.72 33.69 33.69 0 0 0 4.13-10.39c3-14.2-3.48-28.39-15.43-37a33.17 33.17 0 0 0 2.13-6.59c4.2-19.81-10.09-39.61-31.91-44.23a43.25 43.25 0 0 0-19.83.36c-5.36-15.57-21.84-26.37-40.66-25.28-18.51 1.06-33.45 13.3-37.29 29a44.21 44.21 0 0 0-13.08 2.29c-21.14 7.1-33.06 28.41-26.62 47.6a33.36 33.36 0 0 0 2.87 6.3c-10.88 9.92-15.69 24.76-11.07 38.52a33.09 33.09 0 0 0 4.28 8.45 31.54 31.54 0 0 0 14 48.74 25.83 25.83 0 0 0 26.31 33.14 25.74 25.74 0 0 0 10.68-3 25.79 25.79 0 0 0 14.84 3.67 26.07 26.07 0 0 0 8.9-2.16 31.5 31.5 0 0 0 43.23-3.4 26.08 26.08 0 0 0 6.08.39 25.8 25.8 0 0 0 13.7-4.9A25.86 25.86 0 0 0 275 247.11a31.57 31.57 0 0 0 16.44-29.55z" stroke-linecap="round" stroke-linejoin="round" fill="none" stroke="#404041" stroke-width="4"></path><path d="M152.74 261c10.85-.76 15 42.54 2.6 45.11-13.61 2.79-15-44.27-2.6-45.11z" stroke-miterlimit="10" stroke="#404041" stroke-width="4" fill="#ffe8d3"></path><path d="M188.1 116.8c-43.16 2.48-48.14 75.42-31.45 74.46 7.55-.44 8.38-8.5 8.11-13.78a35.65 35.65 0 0 0 53.49-3.08c.34 5.28 2.09 13.19 9.64 12.75 16.62-.95 3.38-72.84-39.79-70.35z" fill="#ffe8d3"></path><path d="M175.59 165.93a15.2 15.2 0 0 1-7.9 14.22 35.56 35.56 0 0 1-13.17-25.68c0-.56-.05-1.11-.05-1.66a15.19 15.19 0 0 1 21.12 13.12zm50.18-15.56a35.61 35.61 0 0 1-10.13 27 15.2 15.2 0 0 1 10-28.68c.06.57.1 1.11.13 1.68z" fill="#f7b9c5"></path><path stroke-linecap="round" stroke-linejoin="round" fill="none" stroke="#404041" stroke-width="4" d="m189.46 140.39.43 7.53"></path><path d="M189.59 142.65 192 140a1.2 1.2 0 0 0 .18-1.29A1.17 1.17 0 0 0 191 138l-3.38.19a1.19 1.19 0 0 0-1 .79 1.16 1.16 0 0 0 .33 1.26z" fill="#424143" stroke-miterlimit="10" stroke="#404041" stroke-width="4"></path><path d="M188.1 116.8c-43.16 2.48-48.14 75.42-31.45 74.46 7.55-.44 8.38-8.5 8.11-13.78a35.65 35.65 0 0 0 53.49-3.08c.34 5.28 2.09 13.19 9.64 12.75 16.62-.95 3.38-72.84-39.79-70.35z" stroke-linecap="round" stroke-linejoin="round" fill="none" stroke="#404041" stroke-width="4"></path><path d="M167.69 180.15a35.7 35.7 0 0 1-10.75-14.63m67.06-1.64a35.71 35.71 0 0 1-8.31 13.51" stroke-linecap="round" stroke-linejoin="round" fill="none" stroke="#404041" stroke-width="4"></path><path fill="#e15f5f" d="m181.87 148.38 15.83-.91-7.11 14.16-8.72-13.25z"></path><path stroke-linecap="round" stroke-linejoin="round" fill="none" stroke="#404041" stroke-width="4" d="m181.87 148.38 15.83-.91-7.11 14.16-8.72-13.25z"></path><path d="m127.61 110.47-.13.14c.13.75.26 1.5.34 2.27 1.53 13.22-7.89 20.44-10.4 6.56-1.63 6.85-6.61 9.3-9.15 2.51l-.27.05c-1.28 8.54-7.52 11.76-10 2.28-2.07 4.77-6 5.88-8.23.26h-3.6c-2.17 5.65-6.17 4.54-8.17-.23-2.46 9.48-8.69 6.26-10-2.28l-.3-.08c-2.55 6.79-7.53 4.34-9.14-2.51-2.51 13.88-12 6.66-10.42-6.56.09-.77.21-1.52.35-2.27l-.12-.14c-2.58 10.19-9.48 6-10.16-3.76a3.45 3.45 0 0 0 1.1.88c5.07 2.6 10.4-9.08 10.74-9.83-.22.71-3.6 11.88 3.46 12.38 5.76.4 7.69-4.62 8.26-11.27.12 4.88 1.1 11.16 5.31 11.29 5.63.19 5.06-9.77 4.68-13.49.4 2.55 1.54 7.72 4.18 7.45s2.82-3.69 2.8-5.62c.28 3.37 1.57 12.25 7.27 11.66 5.21-.53 3.78-10.11 2.69-15 1 3.39 2.84 8.56 5.27 8.13s2.82-4.09 2.73-7.07c.67 5 2.32 12.88 6 12 3-.71 8.2-6.9 4.74-14.62 1.51 2.92 5.46 9.8 8.6 9.13 3.64-.8 2.29-5.75.69-9.48 2.17 4 5.52 9.41 7.73 8.88 2.89-.67 5.42-4.21 2.18-11.84 2.16 3.33 5.31 6.78 8.7 5.76a2.57 2.57 0 0 0 .95-.47 45.93 45.93 0 0 1 1.34 6.7c1.49 12.72-7.1 19.82-10.02 8.19z" fill="#ff6196"></path><path d="M96.7 96.21c.67 5 2.32 12.88 6 12 3-.71 8.2-6.9 4.74-14.62 1.51 2.92 5.46 9.8 8.6 9.13 3.64-.8 2.29-5.75.69-9.48 2.17 4 5.52 9.41 7.73 8.88 2.89-.67 5.42-4.21 2.18-11.84m0 0c2.16 3.33 5.31 6.78 8.7 5.76a2.57 2.57 0 0 0 .95-.47 2.19 2.19 0 0 0 .71-.71c1.95-2.78-.64-9.07-2.27-12.42 1.6 2.65 4.82 6.51 9.2 4.41 6.23-3-9.13-13-10-13.48 0-.13-.06-.27-.1-.39 10.79 5.49 11-5.73.46-12.93a47.88 47.88 0 0 0-10.79-5.38c-.09-.09-.17-.19-.27-.28 8.72.72 5.91-8.89-5-13.16-14.17-5.55-30.23-2.4-30.23-2.4s-16.07-3.15-30.28 2.38c-10.94 4.27-13.73 13.88-5 13.16l-.26.28A47.68 47.68 0 0 0 41.63 60c-10.58 7.23-10.34 18.45.47 13 0 .12-.08.26-.11.39a47.45 47.45 0 0 0-7.62 8.86c-7.17 11-2.23 21.47 6 11-.29.55-5.17 9.85-2.14 13.46a3.45 3.45 0 0 0 1.1.88c5.07 2.6 10.4-9.08 10.74-9.83-.22.71-3.6 11.88 3.46 12.38 5.76.4 7.69-4.62 8.26-11.27.12 4.88 1.1 11.16 5.31 11.29 5.63.19 5.06-9.77 4.68-13.49.4 2.55 1.54 7.72 4.18 7.45s2.82-3.69 2.8-5.62c.28 3.37 1.57 12.25 7.27 11.66 5.21-.53 3.78-10.11 2.69-15 1 3.39 2.84 8.56 5.27 8.13s2.82-4.09 2.73-7.07" fill="#ff87af"></path><path d="M134 73.38h0c0-.13-.06-.27-.1-.39 10.79 5.49 11-5.73.46-12.93a47.88 47.88 0 0 0-10.79-5.38c-.09-.09-.17-.19-.27-.28 8.72.72 5.91-8.89-5-13.16-14.24-5.56-30.3-2.41-30.3-2.41s-16.07-3.15-30.28 2.38c-10.94 4.27-13.73 13.88-5 13.16l-.26.28A47.68 47.68 0 0 0 41.63 60c-10.58 7.23-10.34 18.45.47 13 0 .12-.08.26-.11.39a47.45 47.45 0 0 0-7.62 8.86c-7.17 11-2.23 21.47 6 11-.29.55-5.17 9.85-2.14 13.46.68 9.72 7.58 14 10.16 3.76l.12.14c-.14.75-.26 1.5-.35 2.27-1.53 13.22 7.91 20.44 10.42 6.56 1.61 6.85 6.59 9.3 9.14 2.51l.3.08c1.27 8.54 7.5 11.76 10 2.28 2.05 4.77 6 5.88 8.23.26h3.6c2.21 5.62 6.16 4.51 8.23-.26 2.44 9.48 8.68 6.26 10-2.28l.29-.08c2.54 6.79 7.52 4.34 9.15-2.51 2.51 13.88 11.93 6.66 10.4-6.56-.08-.77-.21-1.52-.34-2.27l.13-.14c2.92 11.63 11.51 4.49 10-8.19a45.93 45.93 0 0 0-1.34-6.7 2.19 2.19 0 0 0 .71-.71c1.95-2.78-.64-9.07-2.27-12.42 1.6 2.65 4.82 6.51 9.2 4.41 6.18-3.01-9.18-12.97-10.01-13.48zm.74 9.05a17 17 0 0 1-1.09-2.08c.16.24.57 1 1.1 2.08z" stroke-linecap="round" stroke-linejoin="round" fill="none" stroke="#404041" stroke-width="4"></path><path d="M331.52 225.67s0 .1-.08.15c.28.63.57 1.27.82 1.93 4.41 11.34-2.26 19.92-7.69 8.21.15 6.44-3.69 9.76-7.51 4.34l-.24.14c.84 7.85-3.94 12.15-8.29 4.32-.73 4.7-4 6.6-7.22 2.13l-1.59.44c-.53.14-1.07.27-1.6.39-.67 5.5-4.42 5.42-7.34 1.68 0 9-6.24 7.55-9.35.29h-.28c-.68 6.6-5.66 5.58-8.67-.11 1 12.87-9 8.66-10.74-3.4-.09-.69-.16-1.39-.21-2.08l-.14-.1c.08 9.62-7 7.47-9.86-1a3.27 3.27 0 0 0 1.17.52c5.1 1.13 7.11-10.44 7.24-11.19 0 .68-.44 11.35 5.92 10.16 5.19-1 5.74-5.87 4.71-11.88 1.23 4.29 3.55 9.62 7.31 8.76 5-1.13 2.22-9.82 1-13 .94 2.17 3.15 6.48 5.43 5.63s1.64-3.92 1.17-5.63c1 2.92 4.22 10.49 9.14 8.64 4.48-1.68 1-9.81-1.1-13.9 1.64 2.77 4.5 6.91 6.55 6s1.55-4.27.78-6.88c1.74 4.25 5 10.86 8.11 9.23 2.51-1.33 5.66-8 .81-14 2 2.24 7.1 7.41 9.73 6.09 3-1.54.69-5.61-1.59-8.55 2.85 3 7.06 7.06 8.9 6.08 2.4-1.26 3.83-5-.81-11 2.68 2.44 6.27 4.77 9 3.08a2.5 2.5 0 0 0 .73-.63 41 41 0 0 1 2.74 5.61c4.28 10.86-1.68 19.14-6.95 9.53z" fill="#ff6196"></path><path d="M300.87 220.2c1.74 4.25 5 10.86 8.11 9.23 2.51-1.33 5.66-8 .81-14 2 2.24 7.1 7.41 9.73 6.09 3-1.54.69-5.61-1.59-8.55 2.85 3 7.06 7.06 8.9 6.08 2.4-1.26 3.83-5-.81-11m0 0c2.68 2.44 6.27 4.77 9 3.08a2.5 2.5 0 0 0 .73-.63 2.11 2.11 0 0 0 .47-.8c1.08-2.91-2.67-7.88-4.88-10.46 2 2 5.77 4.64 9.16 1.77 4.81-4.11-11.08-9.37-11.93-9.63l-.18-.32c10.82 2.36 8.44-7.63-2.58-11.55A43.89 43.89 0 0 0 315 177.2l-.31-.19c7.88-1.37 3.18-9.23-7.5-10.47-13.83-1.62-27.33 4.89-27.33 4.89s-14.95.93-26.24 9.11c-8.7 6.31-8.94 15.46-1.41 12.8 0 .11-.11.21-.16.31a44 44 0 0 0-8.31 7.26c-7.7 8.82-4.89 18.7 3.41 11.34a2.22 2.22 0 0 0 0 .37 43.71 43.71 0 0 0-4.7 9.6c-3.81 11.37 3 19.52 7.85 8.38-.13.56-2.29 9.92 1.22 12.42a3.27 3.27 0 0 0 1.17.52c5.1 1.13 7.11-10.44 7.24-11.19 0 .68-.44 11.35 5.92 10.16 5.19-1 5.74-5.87 4.71-11.88 1.23 4.29 3.55 9.62 7.31 8.76 5-1.13 2.22-9.82 1-13 .94 2.17 3.15 6.48 5.43 5.63s1.64-3.92 1.17-5.63c1 2.92 4.22 10.49 9.14 8.64 4.48-1.68 1-9.81-1.1-13.9 1.64 2.77 4.5 6.91 6.55 6s1.55-4.27.78-6.88" fill="#ff87af"></path><path d="M328.6 191.36h0l-.18-.32c10.82 2.36 8.44-7.63-2.58-11.55A43.89 43.89 0 0 0 315 177.2l-.31-.19c7.88-1.37 3.18-9.23-7.5-10.47-13.83-1.62-27.33 4.89-27.33 4.89s-14.95.93-26.24 9.11c-8.7 6.31-8.94 15.46-1.41 12.8 0 .11-.11.21-.16.31a44 44 0 0 0-8.31 7.26c-7.7 8.82-4.89 18.7 3.41 11.34a2.22 2.22 0 0 0 0 .37 43.71 43.71 0 0 0-4.7 9.6c-3.81 11.37 3 19.52 7.85 8.38-.13.56-2.29 9.92 1.22 12.42 2.85 8.44 9.94 10.59 9.86 1l.14.1c.05.69.12 1.39.21 2.08 1.71 12.06 11.73 16.27 10.74 3.4 3 5.69 8 6.71 8.67.11h.28c3.11 7.26 9.37 8.67 9.35-.29 2.92 3.74 6.67 3.82 7.34-1.68.53-.12 1.07-.25 1.6-.39l1.59-.44c3.26 4.47 6.49 2.57 7.22-2.13 4.35 7.83 9.13 3.53 8.29-4.32l.24-.14c3.82 5.42 7.66 2.1 7.51-4.34 5.43 11.71 12.1 3.13 7.69-8.21-.25-.66-.54-1.3-.82-1.93 0 0 .05-.11.08-.15 5.27 9.61 11.23 1.3 7-9.58a41 41 0 0 0-2.74-5.61 2.11 2.11 0 0 0 .47-.8c1.08-2.91-2.67-7.88-4.88-10.46 2 2 5.77 4.64 9.16 1.77 4.82-4.13-11.07-9.39-11.92-9.65zm2.75 7.84a14.39 14.39 0 0 1-1.44-1.59c.18.18.73.76 1.44 1.59z" stroke-linecap="round" stroke-linejoin="round" fill="none" stroke="#404041" stroke-width="4"></path><path d="M112.2 185.55c-34.4-18.28-35.46-53.49-34.39-67.48a11.11 11.11 0 0 0 5-.32s1.79 2.34 6 .73c3.07-1.16 2.21-3 1.51-4a7.53 7.53 0 0 0 6.49 2 4.21 4.21 0 0 0 .55-.09C91.74 155.2 122.51 176 122.51 176a8.57 8.57 0 0 1-10.31 9.55z" stroke-linecap="round" stroke-linejoin="round" stroke="#404041" stroke-width="4" fill="#ffe8d3"></path><path d="M76.43 117.52c.91.61 2.77 1.1 6.33.23 0 0 1.79 2.34 6 .73 3.07-1.16 2.21-3 1.51-4a7.53 7.53 0 0 0 6.49 2c1.13-.11 1.79-.55 2-1.31" stroke-linecap="round" stroke-linejoin="round" fill="none" stroke="#404041" stroke-width="4"></path><path d="M178.2 142a1.42 1.42 0 0 0-1.32-.53c.49-.43.73-.86.49-1.28-1.08-1.89-6.68 1.3-6.68 1.3s-1.71.72-1.1 2c.15.34.58.44 1 .46a1.21 1.21 0 0 0-.19 1.35c.36.79 2.2.34 2.2.34s6.68-1.77 5.6-3.64zm31.8-.65c0-.44-.34-.81-.88-1.12.64-.12 1.06-.38 1.06-.86 0-2.18-6.45-2.2-6.45-2.2s-1.83-.22-2 1.22c0 .38.29.68.67.91a1.2 1.2 0 0 0-.84 1.08c-.08.86 1.74 1.38 1.74 1.38s6.7 1.77 6.7-.41z" fill="#404041"></path><path d="M97.33 134.7a62.65 62.65 0 0 1 0-18.31 4.21 4.21 0 0 1-.55.09 7.53 7.53 0 0 1-6.49-2c.7.94 1.56 2.83-1.51 4a9.15 9.15 0 0 1-1.72.47 3.77 3.77 0 0 1-1 .28 4.5 4.5 0 0 1-3.77-1.37 10.86 10.86 0 0 1-4.43.21 86.28 86.28 0 0 0 .25 15.53c2.09 4.57 5.94 5.57 8.13 0h3.6c1.94 5.09 5.33 4.69 7.49 1.1z" fill="#e4beb0"></path><path d="M112.2 185.55c-34.4-18.28-35.46-53.49-34.39-67.48a11.11 11.11 0 0 0 5-.32s1.79 2.34 6 .73c3.07-1.16 2.21-3 1.51-4a7.53 7.53 0 0 0 6.49 2 4.21 4.21 0 0 0 .55-.09C91.74 155.2 122.51 176 122.51 176a8.57 8.57 0 0 1-10.31 9.55zM144.08 44c.71.4 6.53 4.9 8.06 14m1.91-20.24c.71.4 6.52 4.9 8.06 14M301.18 148c.69-.44 7.41-3.41 16.1-.47m-16.89-11.28c.68-.44 7.41-3.42 16.1-.47M303.27 262c-.59.57-6.58 4.83-15.69 3.69m18.82 7.68c-.59.56-6.58 4.83-15.69 3.69M47.8 143.8c-.81.08-8.16-.31-14.58-6.87m9.97 17.71c-.81.08-8.16-.31-14.58-6.86" stroke-linecap="round" stroke-linejoin="round" fill="none" stroke="#404041" stroke-width="4"></path></g></svg>